<svg width="40" height="55" viewBox="0 0 40 55" fill="none" xmlns="http://www.w3.org/2000/svg">
<path d="M40 20C40 31.0457 20 54.5 20 54.5C20 54.5 0 31.0457 0 20C0 8.9543 8.9543 0 20 0C31.0457 0 40 8.9543 40 20Z" fill="#FF871F"/>
<path d="M19.3423 13.2557C20.0384 13.2604 20.7154 13.3835 21.3736 13.625C22.0365 13.8617 22.633 14.25 23.1634 14.7898C23.6937 15.3248 24.1151 16.0421 24.4276 16.9418C24.7401 17.8414 24.8963 18.9541 24.8963 20.2798C24.901 21.5298 24.7685 22.6473 24.4986 23.6321C24.2334 24.6122 23.8523 25.4408 23.3551 26.1179C22.858 26.795 22.259 27.3111 21.5582 27.6662C20.8575 28.0213 20.0691 28.1989 19.1932 28.1989C18.2746 28.1989 17.4602 28.0189 16.75 27.6591C16.0445 27.2992 15.474 26.8068 15.0384 26.1818C14.6027 25.5568 14.3352 24.8419 14.2358 24.0369H16.8281C16.9607 24.6146 17.2306 25.0739 17.6378 25.4148C18.0497 25.7509 18.5682 25.919 19.1932 25.919C20.2017 25.919 20.9782 25.4811 21.5227 24.6051C22.0672 23.7292 22.3395 22.5123 22.3395 20.9545H22.2401C22.008 21.3712 21.7074 21.7311 21.3381 22.0341C20.9688 22.3324 20.5497 22.562 20.081 22.723C19.617 22.884 19.1245 22.9645 18.6037 22.9645C17.7514 22.9645 16.9844 22.7609 16.3026 22.3537C15.6255 21.9465 15.0881 21.3878 14.6903 20.6776C14.2973 19.9673 14.0985 19.1553 14.0938 18.2415C14.0938 17.2945 14.3116 16.4446 14.7472 15.6918C15.1875 14.9342 15.8007 14.3376 16.5866 13.902C17.3726 13.4616 18.2912 13.2462 19.3423 13.2557ZM19.3494 15.3864C18.8381 15.3864 18.3764 15.5118 17.9645 15.7628C17.5573 16.009 17.2353 16.3452 16.9986 16.7713C16.7666 17.1927 16.6506 17.6638 16.6506 18.1847C16.6553 18.7008 16.7713 19.1695 16.9986 19.5909C17.2306 20.0123 17.5455 20.3461 17.9432 20.5923C18.3456 20.8385 18.8049 20.9616 19.321 20.9616C19.7045 20.9616 20.062 20.8883 20.3935 20.7415C20.7249 20.5947 21.0137 20.3911 21.2599 20.1307C21.5109 19.8655 21.705 19.5649 21.8423 19.2287C21.9844 18.8925 22.053 18.5374 22.0483 18.1634C22.0483 17.6662 21.9299 17.2069 21.6932 16.7855C21.4612 16.3641 21.1416 16.0256 20.7344 15.7699C20.3319 15.5142 19.8703 15.3864 19.3494 15.3864Z" fill="white"/>
</svg>
