<svg width="40" height="55" viewBox="0 0 40 55" fill="none" xmlns="http://www.w3.org/2000/svg">
<path d="M40 20C40 31.0457 20 54.5 20 54.5C20 54.5 0 31.0457 0 20C0 8.9543 8.9543 0 20 0C31.0457 0 40 8.9543 40 20Z" fill="#FFC38F"/>
<path d="M19.5128 27.1989C18.4901 27.1989 17.581 27.0237 16.7855 26.6733C15.9948 26.3229 15.3698 25.8352 14.9105 25.2102C14.4512 24.5852 14.2074 23.8632 14.179 23.044H16.8494C16.8731 23.437 17.0033 23.7803 17.2401 24.0739C17.4768 24.3627 17.7917 24.5876 18.1847 24.7486C18.5777 24.9096 19.018 24.9901 19.5057 24.9901C20.0265 24.9901 20.4882 24.9001 20.8906 24.7202C21.2931 24.5355 21.608 24.2798 21.8352 23.9531C22.0625 23.6264 22.1738 23.25 22.169 22.8239C22.1738 22.3835 22.0601 21.9953 21.8281 21.6591C21.5961 21.3229 21.2599 21.0601 20.8196 20.8707C20.384 20.6813 19.8584 20.5866 19.2429 20.5866H17.9574V18.5554H19.2429C19.7495 18.5554 20.1922 18.4678 20.571 18.2926C20.9545 18.1174 21.2552 17.8712 21.473 17.554C21.6908 17.232 21.7973 16.8603 21.7926 16.4389C21.7973 16.027 21.705 15.6695 21.5156 15.3665C21.331 15.0587 21.0682 14.8196 20.7273 14.6491C20.3911 14.4787 19.9957 14.3935 19.5412 14.3935C19.0961 14.3935 18.6842 14.474 18.3054 14.6349C17.9266 14.7959 17.6212 15.0256 17.3892 15.3239C17.1572 15.6174 17.0341 15.9678 17.0199 16.375H14.4844C14.5033 15.5606 14.7377 14.8456 15.1875 14.2301C15.642 13.6098 16.2481 13.1269 17.0057 12.7812C17.7633 12.4309 18.6132 12.2557 19.5554 12.2557C20.526 12.2557 21.3688 12.438 22.0838 12.8026C22.8035 13.1624 23.3598 13.6477 23.7528 14.2585C24.1458 14.8693 24.3423 15.544 24.3423 16.2827C24.3471 17.1018 24.1056 17.7884 23.6179 18.3423C23.1349 18.8963 22.5005 19.2585 21.7145 19.429V19.5426C22.7372 19.6847 23.5208 20.0634 24.0653 20.679C24.6146 21.2898 24.8868 22.0497 24.8821 22.9588C24.8821 23.7732 24.6501 24.5024 24.1861 25.1463C23.7268 25.7855 23.0923 26.2874 22.2827 26.652C21.4777 27.0166 20.5545 27.1989 19.5128 27.1989Z" fill="white"/>
</svg>
