<svg width="40" height="55" viewBox="0 0 40 55" fill="none" xmlns="http://www.w3.org/2000/svg">
<path d="M40 20C40 31.0457 20 54.5 20 54.5C20 54.5 0 31.0457 0 20C0 8.9543 8.9543 0 20 0C31.0457 0 40 8.9543 40 20Z" fill="#FF871F"/>
<path d="M15.2088 13.4545V28H12.5739V16.0185H12.4886L9.08665 18.1918V15.777L12.7017 13.4545H15.2088ZM24.2784 28.277C23.1089 28.277 22.1051 27.9811 21.267 27.3892C20.4337 26.7926 19.7921 25.9332 19.3423 24.8111C18.8973 23.6842 18.6747 22.3277 18.6747 20.7415C18.6795 19.1553 18.9044 17.8059 19.3494 16.6932C19.7992 15.5758 20.4408 14.7235 21.2741 14.1364C22.1122 13.5492 23.1136 13.2557 24.2784 13.2557C25.4432 13.2557 26.4446 13.5492 27.2827 14.1364C28.1207 14.7235 28.7623 15.5758 29.2074 16.6932C29.6572 17.8106 29.8821 19.16 29.8821 20.7415C29.8821 22.3324 29.6572 23.6913 29.2074 24.8182C28.7623 25.9403 28.1207 26.7973 27.2827 27.3892C26.4493 27.9811 25.4479 28.277 24.2784 28.277ZM24.2784 26.054C25.1875 26.054 25.9048 25.6065 26.4304 24.7116C26.9607 23.812 27.2259 22.4886 27.2259 20.7415C27.2259 19.5862 27.1051 18.6155 26.8636 17.8295C26.6222 17.0436 26.2813 16.4517 25.8409 16.054C25.4006 15.6515 24.8797 15.4503 24.2784 15.4503C23.3741 15.4503 22.6591 15.9001 22.1335 16.7997C21.608 17.6946 21.3428 19.0085 21.3381 20.7415C21.3333 21.9015 21.4493 22.8769 21.6861 23.6676C21.9276 24.4583 22.2685 25.0549 22.7088 25.4574C23.1491 25.8551 23.6723 26.054 24.2784 26.054Z" fill="white"/>
</svg>
