<svg width="40" height="55" viewBox="0 0 40 55" fill="none" xmlns="http://www.w3.org/2000/svg">
<path d="M40 20C40 31.0457 20 54.5 20 54.5C20 54.5 0 31.0457 0 20C0 8.9543 8.9543 0 20 0C31.0457 0 40 8.9543 40 20Z" fill="#FFC38F"/>
<path d="M14.2926 27V25.0966L19.3423 20.1463C19.8253 19.6586 20.2277 19.2254 20.5497 18.8466C20.8717 18.4678 21.1132 18.1009 21.2741 17.7457C21.4351 17.3906 21.5156 17.0118 21.5156 16.6094C21.5156 16.1501 21.4115 15.7571 21.2031 15.4304C20.9948 15.099 20.7083 14.8433 20.3438 14.6634C19.9792 14.4834 19.5649 14.3935 19.1009 14.3935C18.6226 14.3935 18.2036 14.4929 17.8438 14.6918C17.4839 14.8859 17.2045 15.1629 17.0057 15.5227C16.8116 15.8826 16.7145 16.3111 16.7145 16.8082H14.2074C14.2074 15.8849 14.4181 15.0824 14.8395 14.4006C15.2609 13.7187 15.8409 13.1908 16.5795 12.8168C17.3229 12.4427 18.1752 12.2557 19.1364 12.2557C20.1117 12.2557 20.9688 12.438 21.7074 12.8026C22.446 13.1671 23.0189 13.6667 23.4261 14.3011C23.8381 14.9356 24.044 15.66 24.044 16.4744C24.044 17.0189 23.9399 17.554 23.7315 18.0795C23.5232 18.6051 23.1563 19.1875 22.6307 19.8267C22.1098 20.4659 21.3783 21.2401 20.4361 22.1491L17.929 24.6989V24.7983H24.2642V27H14.2926Z" fill="white"/>
</svg>
