<svg width="40" height="55" viewBox="0 0 40 55" fill="none" xmlns="http://www.w3.org/2000/svg">
<path d="M40 20C40 31.0457 20 54.5 20 54.5C20 54.5 0 31.0457 0 20C0 8.9543 8.9543 0 20 0C31.0457 0 40 8.9543 40 20Z" fill="#F9A359"/>
<path d="M20.3494 27.1989C19.4025 27.1989 18.5549 27.0213 17.8068 26.6662C17.0587 26.3063 16.4645 25.8139 16.0241 25.1889C15.5885 24.5639 15.3565 23.849 15.3281 23.044H17.8849C17.9323 23.6406 18.1903 24.1283 18.6591 24.5071C19.1278 24.8812 19.6913 25.0682 20.3494 25.0682C20.8655 25.0682 21.3248 24.9498 21.7273 24.7131C22.1297 24.4763 22.447 24.1473 22.679 23.7259C22.911 23.3045 23.0246 22.8239 23.0199 22.2841C23.0246 21.7348 22.9086 21.2472 22.6719 20.821C22.4351 20.3949 22.1108 20.0611 21.6989 19.8196C21.2869 19.5734 20.8134 19.4503 20.2784 19.4503C19.8428 19.4455 19.4143 19.526 18.9929 19.6918C18.5715 19.8575 18.2377 20.0753 17.9915 20.3452L15.6122 19.9545L16.3722 12.4545H24.8097V14.6562H18.5526L18.1335 18.5128H18.2188C18.4886 18.1955 18.8698 17.9328 19.3622 17.7244C19.8546 17.5114 20.3944 17.4048 20.9815 17.4048C21.8622 17.4048 22.6482 17.6132 23.3395 18.0298C24.0308 18.4418 24.5753 19.0099 24.973 19.7344C25.3707 20.4588 25.5696 21.2874 25.5696 22.2202C25.5696 23.1813 25.3471 24.0384 24.902 24.7912C24.4616 25.5393 23.8485 26.1288 23.0625 26.5597C22.2812 26.9858 21.3769 27.1989 20.3494 27.1989Z" fill="white"/>
</svg>
