<svg width="40" height="55" viewBox="0 0 40 55" fill="none" xmlns="http://www.w3.org/2000/svg">
<path d="M40 20C40 31.0457 20 54.5 20 54.5C20 54.5 0 31.0457 0 20C0 8.9543 8.9543 0 20 0C31.0457 0 40 8.9543 40 20Z" fill="#F9A359"/>
<path d="M20.6193 27.1989C19.9233 27.1941 19.2438 27.0734 18.581 26.8366C17.9181 26.5952 17.3215 26.2045 16.7912 25.6648C16.2609 25.1203 15.8395 24.3982 15.527 23.4986C15.2145 22.5942 15.0606 21.4744 15.0653 20.1392C15.0653 18.8939 15.1979 17.7836 15.4631 16.8082C15.7282 15.8329 16.1094 15.009 16.6065 14.3366C17.1037 13.6596 17.7027 13.1435 18.4034 12.7884C19.1089 12.4332 19.8973 12.2557 20.7685 12.2557C21.6823 12.2557 22.492 12.4356 23.1974 12.7955C23.9077 13.1553 24.4806 13.6477 24.9162 14.2727C25.3518 14.893 25.6217 15.5938 25.7259 16.375H23.1335C23.0009 15.8163 22.7287 15.3712 22.3168 15.0398C21.9096 14.7036 21.3935 14.5355 20.7685 14.5355C19.7599 14.5355 18.9834 14.9735 18.4389 15.8494C17.8991 16.7254 17.6269 17.928 17.6222 19.4574H17.7216C17.9536 19.0407 18.2543 18.6832 18.6236 18.3849C18.9929 18.0866 19.4096 17.857 19.8736 17.696C20.3423 17.5303 20.8371 17.4474 21.358 17.4474C22.2102 17.4474 22.9749 17.651 23.652 18.0582C24.3338 18.4654 24.8736 19.0265 25.2713 19.7415C25.669 20.4517 25.8655 21.2661 25.8608 22.1847C25.8655 23.1411 25.6477 24.0005 25.2074 24.7628C24.767 25.5204 24.1539 26.117 23.3679 26.5526C22.5819 26.9882 21.6657 27.2036 20.6193 27.1989ZM20.6051 25.0682C21.1212 25.0682 21.5829 24.9427 21.9901 24.6918C22.3973 24.4408 22.7192 24.1023 22.956 23.6761C23.1927 23.25 23.3087 22.7718 23.304 22.2415C23.3087 21.7206 23.1951 21.2495 22.9631 20.8281C22.7358 20.4067 22.4209 20.0729 22.0185 19.8267C21.616 19.5805 21.1567 19.4574 20.6406 19.4574C20.2571 19.4574 19.8996 19.5308 19.5682 19.6776C19.2367 19.8243 18.9479 20.0279 18.7017 20.2884C18.4555 20.544 18.2614 20.8423 18.1193 21.1832C17.982 21.5194 17.911 21.8793 17.9062 22.2628C17.911 22.7694 18.0294 23.2358 18.2614 23.6619C18.4934 24.0881 18.813 24.429 19.2202 24.6847C19.6274 24.9403 20.089 25.0682 20.6051 25.0682Z" fill="white"/>
</svg>
