<svg width="40" height="55" viewBox="0 0 40 55" fill="none" xmlns="http://www.w3.org/2000/svg">
<path d="M40 20C40 31.0457 20 54.5 20 54.5C20 54.5 0 31.0457 0 20C0 8.9543 8.9543 0 20 0C31.0457 0 40 8.9543 40 20Z" fill="#FF871F"/>
<path d="M20.4631 28.1989C19.4072 28.1989 18.4697 28.0213 17.6506 27.6662C16.8362 27.3111 16.197 26.8258 15.733 26.2102C15.2737 25.59 15.0464 24.8868 15.0511 24.1009C15.0464 23.4901 15.179 22.929 15.4489 22.4176C15.7188 21.9062 16.0833 21.4801 16.5426 21.1392C17.0066 20.7936 17.5227 20.5734 18.0909 20.4787V20.3793C17.3428 20.2135 16.7367 19.8324 16.2727 19.2358C15.8134 18.6345 15.5862 17.9408 15.5909 17.1548C15.5862 16.4067 15.7945 15.7391 16.2159 15.152C16.6373 14.5649 17.215 14.1032 17.9489 13.767C18.6828 13.4261 19.5208 13.2557 20.4631 13.2557C21.3958 13.2557 22.2268 13.4261 22.956 13.767C23.6899 14.1032 24.2675 14.5649 24.6889 15.152C25.1151 15.7391 25.3281 16.4067 25.3281 17.1548C25.3281 17.9408 25.0938 18.6345 24.625 19.2358C24.161 19.8324 23.562 20.2135 22.8281 20.3793V20.4787C23.3963 20.5734 23.9077 20.7936 24.3622 21.1392C24.8215 21.4801 25.1861 21.9062 25.456 22.4176C25.7306 22.929 25.8679 23.4901 25.8679 24.1009C25.8679 24.8868 25.6359 25.59 25.1719 26.2102C24.7079 26.8258 24.0687 27.3111 23.2543 27.6662C22.4446 28.0213 21.5142 28.1989 20.4631 28.1989ZM20.4631 26.1676C21.0076 26.1676 21.4811 26.0753 21.8835 25.8906C22.286 25.7012 22.5985 25.4361 22.821 25.0952C23.0436 24.7543 23.1572 24.3613 23.1619 23.9162C23.1572 23.4522 23.0365 23.0426 22.7997 22.6875C22.5677 22.3277 22.2481 22.0459 21.8409 21.8423C21.4384 21.6387 20.9792 21.5369 20.4631 21.5369C19.9422 21.5369 19.4782 21.6387 19.071 21.8423C18.6638 22.0459 18.3419 22.3277 18.1051 22.6875C17.8731 23.0426 17.7595 23.4522 17.7642 23.9162C17.7595 24.3613 17.8684 24.7543 18.0909 25.0952C18.3134 25.4313 18.6259 25.6941 19.0284 25.8835C19.4356 26.0729 19.9138 26.1676 20.4631 26.1676ZM20.4631 19.5412C20.9081 19.5412 21.3011 19.4512 21.642 19.2713C21.9877 19.0914 22.2599 18.8404 22.4588 18.5185C22.6577 18.1965 22.7595 17.8248 22.7642 17.4034C22.7595 16.9867 22.66 16.6222 22.4659 16.3097C22.2718 15.9924 22.0019 15.7486 21.6562 15.5781C21.3106 15.4029 20.9129 15.3153 20.4631 15.3153C20.0038 15.3153 19.599 15.4029 19.2486 15.5781C18.9029 15.7486 18.633 15.9924 18.4389 16.3097C18.2495 16.6222 18.1572 16.9867 18.1619 17.4034C18.1572 17.8248 18.2519 18.1965 18.446 18.5185C18.6449 18.8357 18.9171 19.0866 19.2628 19.2713C19.6132 19.4512 20.0133 19.5412 20.4631 19.5412Z" fill="white"/>
</svg>
